<svg xmlns="http://www.w3.org/2000/svg" viewBox="0 0 1024 1024">
  <defs>
    <linearGradient id="background" x1="120" y1="80" x2="900" y2="940" gradientUnits="userSpaceOnUse">
      <stop stop-color="#203D3A"/>
      <stop offset="1" stop-color="#102321"/>
    </linearGradient>
    <linearGradient id="mark" x1="344" y1="284" x2="720" y2="760" gradientUnits="userSpaceOnUse">
      <stop stop-color="#FFF8E8"/>
      <stop offset="1" stop-color="#EAC884"/>
    </linearGradient>
    <filter id="shadow" x="-20%" y="-20%" width="140%" height="150%">
      <feDropShadow dx="0" dy="28" stdDeviation="30" flood-color="#071211" flood-opacity=".38"/>
    </filter>
  </defs>
  <rect x="72" y="72" width="880" height="880" rx="208" fill="url(#background)"/>
  <path d="M170 364C270 188 466 122 646 177c119 36 214 123 264 237" fill="none" stroke="#345955" stroke-width="30" stroke-linecap="round" opacity=".62"/>
  <g filter="url(#shadow)" fill="url(#mark)">
    <rect x="294" y="252" width="126" height="520" rx="63"/>
    <path d="M395 531 650 270c26-27 70-27 96-1 24 25 25 64 2 90L547 566l213 205H575L395 600Z"/>
  </g>
  <circle cx="778" cy="248" r="39" fill="#E4A94E"/>
</svg>
